<svg xmlns="http://www.w3.org/2000/svg" viewBox="0 0 500 500"><g id="freepik--background-simple--inject-2"><path d="M453.18,144.82c-2.41-18.77-7.12-36.76-17-53.14C417.89,61.22,385,42.83,351.56,33.49c-28-7.82-58.15-10.07-86.09-2-30.66,8.86-56.38,29.28-84,45.29a436.74,436.74,0,0,1-63.11,29.66C100.79,113.18,78.45,117,64,129.74a145.24,145.24,0,0,0-23.35,26.64c-27,39.31-35.76,89.53-31.59,136.41,2.9,32.67,11.88,65.71,32,91.59,28.28,36.3,76.8,54.19,122.6,49.68,52-5.12,101.24-36.18,152.93-28.73,25.72,3.71,50.35,16.93,76.22,14.48,25.51-2.43,47.35-20,62.74-40.46,12.34-16.43,20.55-36.29,21.31-57,.82-22.4-9.32-42.82-14.4-64.2C453.59,220.79,458,182.56,453.18,144.82Z" style="fill:#FFC100"></path><path d="M453.18,144.82c-2.41-18.77-7.12-36.76-17-53.14C417.89,61.22,385,42.83,351.56,33.49c-28-7.82-58.15-10.07-86.09-2-30.66,8.86-56.38,29.28-84,45.29a436.74,436.74,0,0,1-63.11,29.66C100.79,113.18,78.45,117,64,129.74a145.24,145.24,0,0,0-23.35,26.64c-27,39.31-35.76,89.53-31.59,136.41,2.9,32.67,11.88,65.71,32,91.59,28.28,36.3,76.8,54.19,122.6,49.68,52-5.12,101.24-36.18,152.93-28.73,25.72,3.71,50.35,16.93,76.22,14.48,25.51-2.43,47.35-20,62.74-40.46,12.34-16.43,20.55-36.29,21.31-57,.82-22.4-9.32-42.82-14.4-64.2C453.59,220.79,458,182.56,453.18,144.82Z" style="fill:#fff;opacity:0.7000000000000001"></path></g><g id="freepik--Key--inject-2"><path d="M331.16,130.15a40.88,40.88,0,0,0,0-57.75h0a40.85,40.85,0,0,0-26.55-11.9c-.61,0-1.23-.06-1.84-.06h-.24c-.35,0-.82,0-1.36.05h-.7a4.78,4.78,0,0,0-.53,0h-.05c-.54,0-1.07.08-1.6.13a24,24,0,0,0,1.81-9.19,24.27,24.27,0,1,0-46.63,9.38,40.9,40.9,0,0,0-5.88-.42c-.67,0-1.56,0-2.52.09a40.84,40.84,0,0,0-33.68,59.68l.14.25a41,41,0,0,0,7.19,9.69l45.53,45.54v4.06a7.9,7.9,0,0,0,0,15.35v7.08a7.9,7.9,0,0,0,0,15.35V408.16H211.57a5.6,5.6,0,0,0-5.59,5.59v27.07a5.6,5.6,0,0,0,5.59,5.58h9.18a.52.52,0,0,0,.52-.52v-9.63a4.92,4.92,0,1,1,9.83,0v9.63a.52.52,0,0,0,.52.52h4.21a.52.52,0,0,0,.52-.52v-9.63a4.92,4.92,0,1,1,9.83,0v9.63a.52.52,0,0,0,.52.52h4.2a.52.52,0,0,0,.52-.52v-9.63a4.92,4.92,0,0,1,9.84,0v9.63a.52.52,0,0,0,.52.52h2.63a.52.52,0,0,0,.37.15h20.11a.52.52,0,0,0,.52-.52V217.65a7.89,7.89,0,0,0,0-15.59v-6.83a7.9,7.9,0,0,0,0-15.6V175.9Zm-58.37,38.51L241,136.84a36.87,36.87,0,0,0,4.47.27,37.52,37.52,0,0,0,26.57-11,25.72,25.72,0,0,0,3.84.31c.72,0,1.45,0,2.19-.11a37.66,37.66,0,0,0,31.6,9.77l-32.55,32.55ZM226.5,80.18a29.68,29.68,0,0,1,19.29-8.67l.19,0c.43,0,.93,0,1.61,0s1.62,0,2.41.1a28.45,28.45,0,0,1,15.34,7.79,27,27,0,0,0-4.94,3,24,24,0,0,0-9.64,19,25.24,25.24,0,0,0,11.34,21,28.27,28.27,0,0,1-39.88-6.69l-.41.28.35-.37a28.14,28.14,0,0,1-3.59-7.27A29.68,29.68,0,0,1,226.5,80.18Zm74-8.65.25,0h.91l.63,0h.52c.38,0,.75,0,1.19,0a29.83,29.83,0,0,1,28.13,28.85,28.3,28.3,0,0,1-43.34,22.54,24.93,24.93,0,0,0,6.35-5.44A24.23,24.23,0,0,0,294,84.2a23.84,23.84,0,0,0-9.37-6.11,28.48,28.48,0,0,1,6.25-4.35A30,30,0,0,1,300.46,71.53ZM276.65,87.72a13.65,13.65,0,0,1,3.37.42c5.57,1.44,9.93,7.24,9.93,13.21a14.08,14.08,0,0,1-12.44,14,14,14,0,0,1-6.59-.79,13.76,13.76,0,0,1-2.86-1.46,14.9,14.9,0,0,1,1.67-23.66A15.33,15.33,0,0,1,276.65,87.72Zm-.81-51.17a14.93,14.93,0,1,1-14.93,14.93A14.94,14.94,0,0,1,275.84,36.55Z" style="fill:#263238"></path></g></svg>